<?xml version="1.0" encoding="utf-8"?>
<!-- Generator: Adobe Illustrator 25.2.0, SVG Export Plug-In . SVG Version: 6.00 Build 0)  -->
<svg version="1.1" id="Layer_1" xmlns="http://www.w3.org/2000/svg" xmlns:xlink="http://www.w3.org/1999/xlink" x="0px" y="0px"
	 viewBox="0 0 1404 1872" style="enable-background:new 0 0 1404 1872;" xml:space="preserve">
<style type="text/css">
	.st0{fill-rule:evenodd;clip-rule:evenodd;fill:#FFFFFF;}
	.st1{fill:none;stroke:#010101;stroke-width:0.5;stroke-miterlimit:10;}
	.st2{fill:none;stroke:#010101;stroke-width:3;stroke-miterlimit:10;}
</style>
<rect class="st0" width="1404" height="1872"/>
<g transform="matrix(-1,1.22465e-16,1.22465e-16,1,1404,1872)">
	<path class="st1" d="M0,0h1404"/>
</g>
<g transform="matrix(-1,1.22465e-16,1.22465e-16,1,1404,1846)">
	<path class="st1" d="M0,0h1404"/>
</g>
<g transform="matrix(-1,1.22465e-16,1.22465e-16,1,1404,1820)">
	<path class="st1" d="M0,0h1404"/>
</g>
<g transform="matrix(-1,1.22465e-16,1.22465e-16,1,1404,1794)">
	<path class="st1" d="M0,0h1404"/>
</g>
<g transform="matrix(-1,1.22465e-16,1.22465e-16,1,1404,1768)">
	<path class="st1" d="M0,0h1404"/>
</g>
<g transform="matrix(-1,1.22465e-16,1.22465e-16,1,1404,1742)">
	<path class="st1" d="M0,0h1404"/>
</g>
<g transform="matrix(-1,1.22465e-16,1.22465e-16,1,1404,1716)">
	<path class="st1" d="M0,0h1404"/>
</g>
<g transform="matrix(-1,1.22465e-16,1.22465e-16,1,1404,1690)">
	<path class="st1" d="M0,0h1404"/>
</g>
<g transform="matrix(-1,1.22465e-16,1.22465e-16,1,1404,1664)">
	<path class="st1" d="M0,0h1404"/>
</g>
<g transform="matrix(-1,1.22465e-16,1.22465e-16,1,1404,1638)">
	<path class="st1" d="M0,0h1404"/>
</g>
<g transform="matrix(-1,1.22465e-16,1.22465e-16,1,1404,1612)">
	<path class="st1" d="M0,0h1404"/>
</g>
<g transform="matrix(-1,1.22465e-16,1.22465e-16,1,1404,1586)">
	<path class="st1" d="M0,0h1404"/>
</g>
<g transform="matrix(-1,1.22465e-16,1.22465e-16,1,1404,1560)">
	<path class="st1" d="M0,0h1404"/>
</g>
<g transform="matrix(-1,1.22465e-16,1.22465e-16,1,1404,1534)">
	<path class="st1" d="M0,0h1404"/>
</g>
<g transform="matrix(-1,1.22465e-16,1.22465e-16,1,1404,1508)">
	<path class="st1" d="M0,0h1404"/>
</g>
<g transform="matrix(-1,1.22465e-16,1.22465e-16,1,1404,1482)">
	<path class="st1" d="M0,0h1404"/>
</g>
<g transform="matrix(-1,1.22465e-16,1.22465e-16,1,1404,1456)">
	<path class="st1" d="M0,0h1404"/>
</g>
<g transform="matrix(-1,1.22465e-16,1.22465e-16,1,1404,1430)">
	<path class="st1" d="M0,0h1404"/>
</g>
<g transform="matrix(-1,1.22465e-16,1.22465e-16,1,1404,1404)">
	<path class="st1" d="M0,0h1404"/>
</g>
<g transform="matrix(-1,1.22465e-16,1.22465e-16,1,1404,1378)">
	<path class="st1" d="M0,0h1404"/>
</g>
<g transform="matrix(-1,1.22465e-16,1.22465e-16,1,1404,1352)">
	<path class="st1" d="M0,0h1404"/>
</g>
<g transform="matrix(-1,1.22465e-16,1.22465e-16,1,1404,1326)">
	<path class="st1" d="M0,0h1404"/>
</g>
<g transform="matrix(-1,1.22465e-16,1.22465e-16,1,1404,1300)">
	<path class="st1" d="M0,0h1404"/>
</g>
<g transform="matrix(-1,1.22465e-16,1.22465e-16,1,1404,1274)">
	<path class="st1" d="M0,0h1404"/>
</g>
<g transform="matrix(-1,1.22465e-16,1.22465e-16,1,1404,1248)">
	<path class="st1" d="M0,0h1404"/>
</g>
<g transform="matrix(-1,1.22465e-16,1.22465e-16,1,1404,1222)">
	<path class="st1" d="M0,0h1404"/>
</g>
<g transform="matrix(-1,1.22465e-16,1.22465e-16,1,1404,1196)">
	<path class="st1" d="M0,0h1404"/>
</g>
<g transform="matrix(-1,1.22465e-16,1.22465e-16,1,1404,1170)">
	<path class="st1" d="M0,0h1404"/>
</g>
<g transform="matrix(-1,1.22465e-16,1.22465e-16,1,1404,1144)">
	<path class="st1" d="M0,0h1404"/>
</g>
<g transform="matrix(-1,1.22465e-16,1.22465e-16,1,1404,1118)">
	<path class="st1" d="M0,0h1404"/>
</g>
<g transform="matrix(-1,1.22465e-16,1.22465e-16,1,1404,1092)">
	<path class="st1" d="M0,0h1404"/>
</g>
<g transform="matrix(-1,1.22465e-16,1.22465e-16,1,1404,1066)">
	<path class="st1" d="M0,0h1404"/>
</g>
<g transform="matrix(-1,1.22465e-16,1.22465e-16,1,1404,1040)">
	<path class="st1" d="M0,0h1404"/>
</g>
<g transform="matrix(-1,1.22465e-16,1.22465e-16,1,1404,1014)">
	<path class="st1" d="M0,0h1404"/>
</g>
<g transform="matrix(-1,1.22465e-16,1.22465e-16,1,1404,988)">
	<path class="st1" d="M0,0h1404"/>
</g>
<g transform="matrix(-1,1.22465e-16,1.22465e-16,1,1404,962)">
	<path class="st1" d="M0,0h1404"/>
</g>
<g transform="matrix(-1,1.22465e-16,1.22465e-16,1,1404,936)">
	<path class="st1" d="M0,0h1404"/>
</g>
<g transform="matrix(-1,1.22465e-16,1.22465e-16,1,1404,910)">
	<path class="st1" d="M0,0h1404"/>
</g>
<g transform="matrix(-1,1.22465e-16,1.22465e-16,1,1404,884)">
	<path class="st1" d="M0,0h1404"/>
</g>
<g transform="matrix(-1,1.22465e-16,1.22465e-16,1,1404,858)">
	<path class="st1" d="M0,0h1404"/>
</g>
<g transform="matrix(-1,1.22465e-16,1.22465e-16,1,1404,832)">
	<path class="st1" d="M0,0h1404"/>
</g>
<g transform="matrix(-1,1.22465e-16,1.22465e-16,1,1404,806)">
	<path class="st1" d="M0,0h1404"/>
</g>
<g transform="matrix(-1,1.22465e-16,1.22465e-16,1,1404,780)">
	<path class="st1" d="M0,0h1404"/>
</g>
<g transform="matrix(-1,1.22465e-16,1.22465e-16,1,1404,754)">
	<path class="st1" d="M0,0h1404"/>
</g>
<g transform="matrix(-1,1.22465e-16,1.22465e-16,1,1404,728)">
	<path class="st1" d="M0,0h1404"/>
</g>
<g transform="matrix(-1,1.22465e-16,1.22465e-16,1,1404,702)">
	<path class="st1" d="M0,0h1404"/>
</g>
<g transform="matrix(-1,1.22465e-16,1.22465e-16,1,1404,676)">
	<path class="st1" d="M0,0h1404"/>
</g>
<g transform="matrix(-1,1.22465e-16,1.22465e-16,1,1404,650)">
	<path class="st1" d="M0,0h1404"/>
</g>
<g transform="matrix(-1,1.22465e-16,1.22465e-16,1,1404,624)">
	<path class="st1" d="M0,0h1404"/>
</g>
<g transform="matrix(-1,1.22465e-16,1.22465e-16,1,1404,598)">
	<path class="st1" d="M0,0h1404"/>
</g>
<g transform="matrix(-1,1.22465e-16,1.22465e-16,1,1404,572)">
	<path class="st1" d="M0,0h1404"/>
</g>
<g transform="matrix(-1,1.22465e-16,1.22465e-16,1,1404,546)">
	<path class="st1" d="M0,0h1404"/>
</g>
<g transform="matrix(-1,1.22465e-16,1.22465e-16,1,1404,520)">
	<path class="st1" d="M0,0h1404"/>
</g>
<g transform="matrix(-1,1.22465e-16,1.22465e-16,1,1404,494)">
	<path class="st1" d="M0,0h1404"/>
</g>
<g transform="matrix(-1,1.22465e-16,1.22465e-16,1,1404,468)">
	<path class="st1" d="M0,0h1404"/>
</g>
<g transform="matrix(-1,1.22465e-16,1.22465e-16,1,1404,442)">
	<path class="st1" d="M0,0h1404"/>
</g>
<g transform="matrix(-1,1.22465e-16,1.22465e-16,1,1404,416)">
	<path class="st1" d="M0,0h1404"/>
</g>
<g transform="matrix(-1,1.22465e-16,1.22465e-16,1,1404,390)">
	<path class="st1" d="M0,0h1404"/>
</g>
<g transform="matrix(-1,1.22465e-16,1.22465e-16,1,1404,364)">
	<path class="st1" d="M0,0h1404"/>
</g>
<g transform="matrix(-1,1.22465e-16,1.22465e-16,1,1404,338)">
	<path class="st1" d="M0,0h1404"/>
</g>
<g transform="matrix(-1,1.22465e-16,1.22465e-16,1,1404,312)">
	<path class="st1" d="M0,0h1404"/>
</g>
<g transform="matrix(-1,1.22465e-16,1.22465e-16,1,1404,286)">
	<path class="st1" d="M0,0h1404"/>
</g>
<g transform="matrix(-1,1.22465e-16,1.22465e-16,1,1404,260)">
	<path class="st1" d="M0,0h1404"/>
</g>
<g transform="matrix(-1,1.22465e-16,1.22465e-16,1,1404,234)">
	<path class="st1" d="M0,0h1404"/>
</g>
<g transform="matrix(-1,1.22465e-16,1.22465e-16,1,1404,208)">
	<path class="st1" d="M0,0h1404"/>
</g>
<g transform="matrix(-1,1.22465e-16,1.22465e-16,1,1404,182)">
	<path class="st1" d="M0,0h1404"/>
</g>
<g transform="matrix(-1,1.22465e-16,1.22465e-16,1,1404,156)">
	<path class="st1" d="M0,0h1404"/>
</g>
<g transform="matrix(-1,1.22465e-16,1.22465e-16,1,1404,104)">
	<path class="st1" d="M0,0h1404"/>
</g>
<g transform="matrix(-1,1.22465e-16,1.22465e-16,1,1404,104)">
	<path class="st1" d="M0,26.5h1404"/>
</g>
<g transform="matrix(-1,1.22465e-16,1.22465e-16,1,1404,78)">
	<path class="st1" d="M0,0h1404"/>
</g>
<g transform="matrix(-1,1.22465e-16,1.22465e-16,1,1404,52)">
	<path class="st1" d="M0,0h1404"/>
</g>
<g transform="matrix(-1,1.22465e-16,1.22465e-16,1,1404,26)">
	<path class="st1" d="M0,0h1404"/>
</g>
<g transform="matrix(-1,1.22465e-16,1.22465e-16,1,1404,0)">
	<path class="st1" d="M0,0h1404"/>
</g>
<g transform="matrix(-1,1.22465e-16,1.22465e-16,1,1404,1874)">
	<path class="st1" d="M0,0v-1874"/>
</g>
<g transform="matrix(-1,1.22465e-16,1.22465e-16,1,1378,1874)">
	<path class="st1" d="M0,0v-1874"/>
</g>
<g transform="matrix(-1,1.22465e-16,1.22465e-16,1,1352,1874)">
	<path class="st1" d="M0,0v-1874"/>
</g>
<g transform="matrix(-1,1.22465e-16,1.22465e-16,1,1326,1874)">
	<path class="st1" d="M0,0v-1874"/>
</g>
<g transform="matrix(-1,1.22465e-16,1.22465e-16,1,1300,1874)">
	<path class="st1" d="M0,0v-1874"/>
</g>
<g transform="matrix(-1,1.22465e-16,1.22465e-16,1,1274,1874)">
	<path class="st1" d="M0,0v-1874"/>
</g>
<g transform="matrix(-1,1.22465e-16,1.22465e-16,1,1248,1874)">
	<path class="st1" d="M0,0v-1874"/>
</g>
<g transform="matrix(-1,1.22465e-16,1.22465e-16,1,1222,1874)">
	<path class="st1" d="M0,0v-1874"/>
</g>
<g transform="matrix(-1,1.22465e-16,1.22465e-16,1,1196,1874)">
	<path class="st1" d="M0,0v-1874"/>
</g>
<g transform="matrix(-1,1.22465e-16,1.22465e-16,1,1170,1874)">
	<path class="st1" d="M0,0v-1874"/>
</g>
<g transform="matrix(-1,1.22465e-16,1.22465e-16,1,1144,1874)">
	<path class="st1" d="M0,0v-1874"/>
</g>
<g transform="matrix(-1,1.22465e-16,1.22465e-16,1,1118,1874)">
	<path class="st1" d="M0,0v-1874"/>
</g>
<g transform="matrix(-1,1.22465e-16,1.22465e-16,1,1092,1874)">
	<path class="st1" d="M0,0v-1874"/>
</g>
<g transform="matrix(-1,1.22465e-16,1.22465e-16,1,1066,1874)">
	<path class="st1" d="M0,0v-1874"/>
</g>
<g transform="matrix(-1,1.22465e-16,1.22465e-16,1,1040,1874)">
	<path class="st1" d="M0,0v-1874"/>
</g>
<g transform="matrix(-1,1.22465e-16,1.22465e-16,1,1014,1874)">
	<path class="st1" d="M0,0v-1874"/>
</g>
<g transform="matrix(-1,1.22465e-16,1.22465e-16,1,988,1874)">
	<path class="st1" d="M0,0v-1874"/>
</g>
<g transform="matrix(-1,1.22465e-16,1.22465e-16,1,962,1874)">
	<path class="st1" d="M0,0v-1874"/>
</g>
<g transform="matrix(-1,1.22465e-16,1.22465e-16,1,936,1874)">
	<path class="st1" d="M0,0v-1874"/>
</g>
<g transform="matrix(-1,1.22465e-16,1.22465e-16,1,910,1874)">
	<path class="st1" d="M0,0v-1874"/>
</g>
<g transform="matrix(-1,1.22465e-16,1.22465e-16,1,884,1874)">
	<path class="st1" d="M0,0v-1874"/>
</g>
<g transform="matrix(-1,1.22465e-16,1.22465e-16,1,858,1874)">
	<path class="st1" d="M0,0v-1874"/>
</g>
<g transform="matrix(-1,1.22465e-16,1.22465e-16,1,832,1874)">
	<path class="st1" d="M0,0v-1874"/>
</g>
<g transform="matrix(-1,1.22465e-16,1.22465e-16,1,806,1874)">
	<path class="st1" d="M0,0v-1874"/>
</g>
<g transform="matrix(-1,1.22465e-16,1.22465e-16,1,780,1874)">
	<path class="st1" d="M0,0v-1874"/>
</g>
<g transform="matrix(-1,1.22465e-16,1.22465e-16,1,754,1874)">
	<path class="st1" d="M0,0v-1874"/>
</g>
<g transform="matrix(-1,1.22465e-16,1.22465e-16,1,728,1874)">
	<path class="st1" d="M0,0v-1874"/>
</g>
<g transform="matrix(-1,1.22465e-16,1.22465e-16,1,702,1874)">
	<path class="st1" d="M0,0v-1874"/>
</g>
<g transform="matrix(-1,1.22465e-16,1.22465e-16,1,676,1874)">
	<path class="st1" d="M0,0v-1874"/>
</g>
<g transform="matrix(-1,1.22465e-16,1.22465e-16,1,650,1874)">
	<path class="st1" d="M0,0v-1874"/>
</g>
<g transform="matrix(-1,1.22465e-16,1.22465e-16,1,624,1874)">
	<path class="st1" d="M0,0v-1874"/>
</g>
<g transform="matrix(-1,1.22465e-16,1.22465e-16,1,598,1874)">
	<path class="st1" d="M0,0v-1874"/>
</g>
<g transform="matrix(-1,1.22465e-16,1.22465e-16,1,572,1874)">
	<path class="st1" d="M0,0v-1874"/>
</g>
<g transform="matrix(-1,1.22465e-16,1.22465e-16,1,546,1874)">
	<path class="st1" d="M0,0v-1874"/>
</g>
<g transform="matrix(-1,1.22465e-16,1.22465e-16,1,520,1874)">
	<path class="st1" d="M0,0v-1874"/>
</g>
<g transform="matrix(-1,1.22465e-16,1.22465e-16,1,494,1874)">
	<path class="st1" d="M0,0v-1874"/>
</g>
<g transform="matrix(-1,1.22465e-16,1.22465e-16,1,468,1874)">
	<path class="st1" d="M0,0v-1874"/>
</g>
<g transform="matrix(-1,1.22465e-16,1.22465e-16,1,442,1874)">
	<path class="st1" d="M0,0v-1874"/>
</g>
<g transform="matrix(-1,1.22465e-16,1.22465e-16,1,416,1874)">
	<path class="st1" d="M0,0v-1874"/>
</g>
<g transform="matrix(-1,1.22465e-16,1.22465e-16,1,390,1874)">
	<path class="st1" d="M0,0v-1874"/>
</g>
<g transform="matrix(-1,1.22465e-16,1.22465e-16,1,364,1874)">
	<path class="st1" d="M0,0v-1874"/>
</g>
<g transform="matrix(-1,1.22465e-16,1.22465e-16,1,338,1874)">
	<path class="st1" d="M0,0v-1874"/>
</g>
<g transform="matrix(-1,1.22465e-16,1.22465e-16,1,312,1874)">
	<path class="st1" d="M0,0v-1874"/>
</g>
<g transform="matrix(-1,1.22465e-16,1.22465e-16,1,286,1874)">
	<path class="st1" d="M0,0v-1874"/>
</g>
<g transform="matrix(-1,1.22465e-16,1.22465e-16,1,260,1874)">
	<path class="st1" d="M0,0v-1874"/>
</g>
<g transform="matrix(-1,1.22465e-16,1.22465e-16,1,234,1874)">
	<path class="st1" d="M0,0v-1874"/>
</g>
<g transform="matrix(-1,1.22465e-16,1.22465e-16,1,208,1874)">
	<path class="st1" d="M0,0v-1874"/>
</g>
<g transform="matrix(-1,1.22465e-16,1.22465e-16,1,182,1874)">
	<path class="st1" d="M0,0v-1874"/>
</g>
<g transform="matrix(-1,1.22465e-16,1.22465e-16,1,156,1874)">
	<path class="st1" d="M0,0v-1874"/>
</g>
<g transform="matrix(-1,1.22465e-16,1.22465e-16,1,156,1874)">
	<path class="st1" d="M25.5,0v-1874"/>
</g>
<g transform="matrix(-1,1.22465e-16,1.22465e-16,1,130,1874)">
	<path class="st2" d="M0,0v-1742l0-1.5l-1274-0.5"/>
</g>
<g transform="matrix(-1,1.22465e-16,1.22465e-16,1,104,1874)">
	<path class="st1" d="M0,0v-1874"/>
</g>
<g transform="matrix(-1,1.22465e-16,1.22465e-16,1,77.9995,1874)">
	<path class="st1" d="M0,0v-1874"/>
</g>
<g transform="matrix(-1,1.22465e-16,1.22465e-16,1,51.9995,1874)">
	<path class="st1" d="M0,0v-1874"/>
</g>
<g transform="matrix(-1,1.22465e-16,1.22465e-16,1,25.9995,1874)">
	<path class="st1" d="M0,0v-1874"/>
</g>
<g transform="matrix(-1,1.22465e-16,1.22465e-16,1,-0.0005,1874)">
	<path class="st1" d="M0,0v-1874"/>
</g>
</svg>
